<svg width="202" height="202" viewBox="0 0 202 202" fill="none" xmlns="http://www.w3.org/2000/svg">
<rect width="202" height="202" fill="white"/>
<path d="M103.891 97.9635C109.529 97.9635 114.168 102.408 114.75 108.113H114.813V112.681C114.685 113.031 114.524 113.362 114.324 113.668C113.091 115.552 111.318 116.228 109.493 116.125C107.609 116.018 105.682 115.068 104.393 113.68C103.895 113.144 103.058 113.114 102.522 113.611C101.987 114.108 101.955 114.945 102.452 115.481C104.179 117.341 106.737 118.62 109.343 118.768C111.256 118.877 113.2 118.37 114.813 117.055V121.793H123.638C124.834 121.793 125.234 121.483 125.444 121.179C125.746 120.74 125.954 119.892 125.954 118.262V115.725C125.954 115.239 125.884 113.957 126.443 112.868C126.749 112.27 127.237 111.727 127.963 111.358C128.576 111.047 129.298 110.89 130.124 110.871H134.236C134.84 109.014 136.583 107.672 138.641 107.671C141.2 107.672 143.274 109.746 143.274 112.305C143.273 114.864 141.2 116.938 138.641 116.938C136.502 116.938 134.703 115.489 134.169 113.519H130.46L130.443 113.518C129.755 113.5 129.369 113.614 129.161 113.719C128.974 113.815 128.872 113.932 128.798 114.076C128.596 114.47 128.602 114.998 128.602 115.725V118.262C128.602 119.941 128.423 121.522 127.623 122.682C126.73 123.977 125.308 124.44 123.638 124.44H114.813V135.471H138.774C139.269 133.445 141.095 131.941 143.274 131.941C145.832 131.941 147.907 134.015 147.907 136.574C147.907 139.133 145.833 141.208 143.274 141.208C141.257 141.207 139.542 139.918 138.906 138.119H114.813V148.93H123.638C125.308 148.93 126.73 149.393 127.623 150.688C128.423 151.848 128.602 153.429 128.602 155.108V157.645C128.602 158.372 128.596 158.901 128.798 159.295C128.872 159.438 128.974 159.556 129.161 159.651C129.369 159.756 129.755 159.87 130.443 159.852L130.46 159.851H134.169C134.703 157.881 136.502 156.432 138.641 156.432C141.2 156.432 143.274 158.506 143.274 161.065C143.273 163.624 141.2 165.699 138.641 165.699C136.583 165.699 134.84 164.356 134.236 162.5H130.124C129.298 162.48 128.576 162.323 127.963 162.012C127.237 161.644 126.749 161.1 126.443 160.503C125.884 159.413 125.954 158.132 125.954 157.645V155.108C125.954 153.478 125.746 152.63 125.444 152.191C125.234 151.887 124.835 151.578 123.638 151.578H114.813V161.727H114.756C114.185 167.92 109.292 172.758 103.339 172.758C97.7445 172.758 93.0874 168.484 92.0735 162.828C87.5125 164.31 82.4347 162.784 79.7317 158.752C77.5279 155.464 77.4645 151.347 79.1985 147.958C79.5242 147.385 79.7904 146.937 80.0295 146.584C80.1623 146.396 80.3005 146.211 80.4456 146.03C80.989 145.398 81.4772 145.222 82.4006 144.984C84.5505 144.429 86.4205 145.017 87.8293 146.157C89.2704 147.323 90.1884 149.041 90.3635 150.624C90.4441 151.35 91.0982 151.873 91.8245 151.794C92.551 151.713 93.0754 151.059 92.9954 150.333C92.7399 148.023 91.4517 145.683 89.4954 144.099C87.5068 142.49 84.7873 141.634 81.7395 142.421C79.929 142.888 78.5378 143.972 77.4895 145.237C73.6241 143.624 70.9065 139.811 70.9065 135.361C70.9065 129.755 75.2171 125.159 80.7043 124.701C79.0005 122.918 77.9672 120.591 77.967 118.042C77.967 112.436 82.9551 107.892 89.1086 107.892C90.4773 107.892 91.788 108.118 92.9993 108.529C93.3927 102.626 98.117 97.9636 103.891 97.9635Z" fill="#74B6EF"/>
<path d="M66.7338 29.0739C73.9487 21.4043 84.8067 15.1514 99.2651 16.0944C113.068 16.9946 122.892 23.3587 129.2 31.1686C135.213 38.6137 137.902 47.1561 138.561 53.2692C138.624 53.8537 138.613 54.4385 138.535 55.0114L138.447 84.3571V103.594C138.209 103.575 137.969 103.562 137.726 103.562C135.055 103.562 132.674 104.777 131.098 106.679H129.778C128.386 106.658 126.883 106.878 125.466 107.596C123.926 108.377 122.855 109.562 122.197 110.844C121.106 112.969 121.27 115.35 121.27 115.494V117.321H118.581V116.791C118.58 116.043 118.376 115.326 118.009 114.708C118.129 114.455 118.237 114.2 118.331 113.945C118.496 113.494 118.581 113.016 118.581 112.536V108.077C118.58 107.652 118.516 107.243 118.396 106.858C117.29 99.743 111.31 94.1041 103.845 94.1041C97.4913 94.1043 92.2162 98.1871 90.103 103.792C89.8807 103.782 89.6574 103.777 89.433 103.777C81.5435 103.777 74.4819 109.683 74.4819 117.751C74.4819 119.2 74.7189 120.59 75.1508 121.893C70.6498 124.358 67.5991 129.135 67.5991 134.626C67.5991 140.132 70.6678 144.913 75.1762 147.371C73.9147 151.388 74.3605 155.911 76.895 159.69C79.8065 164.031 84.6527 166.191 89.5112 166.002C91.9261 171.317 97.0906 175.148 103.308 175.148C111.195 175.148 117.372 169 118.421 161.448C118.525 161.088 118.58 160.708 118.581 160.315V154.51H121.27V156.338C121.27 156.481 121.106 158.862 122.197 160.987C122.855 162.269 123.926 163.454 125.466 164.235C126.883 164.954 128.386 165.174 129.778 165.152H131.098C132.674 167.054 135.055 168.269 137.726 168.269C137.969 168.269 138.209 168.256 138.447 168.236V168.968C138.447 177.189 131.782 183.854 123.561 183.854H73.7582C65.5372 183.854 58.8725 177.19 58.8725 168.968V108.321C58.8726 102.677 62.0648 97.5181 67.1157 94.9996L100.483 78.3629C113.012 70.6375 114.778 60.4856 114.513 56.3639C114.484 56.2004 114.46 56.0349 114.442 55.8688C114.213 53.7444 113.034 49.7617 110.328 46.4108C107.919 43.4289 104.175 40.7246 97.686 40.3014C91.9372 39.9266 87.8275 42.1218 84.558 45.5309L84.4028 45.6949C80.8159 49.5081 78.659 54.4594 77.9008 57.5016C76.2811 64.0016 69.6983 67.9579 63.1987 66.3385C56.699 64.7187 52.7431 58.1362 54.3627 51.6364C55.9322 45.338 59.8026 36.4421 66.7338 29.0739ZM135.706 141.397C136.462 142.279 137.394 143.004 138.447 143.523V151.103C138.209 151.083 137.969 151.071 137.726 151.071C135.533 151.071 133.535 151.889 132.018 153.236C131.976 151.539 131.717 149.223 130.349 147.241C128.417 144.441 125.443 143.762 123.098 143.762H118.581V141.397H135.706ZM132.018 118.594C133.535 119.941 135.533 120.76 137.726 120.76C137.969 120.76 138.209 120.747 138.447 120.727V128.092C137.227 128.693 136.171 129.572 135.362 130.649H118.581V128.069H123.098C125.443 128.069 128.417 127.39 130.349 124.59C131.717 122.608 131.976 120.291 132.018 118.594Z" fill="#FF2D55"/>
</svg>
